<svg xmlns="http://www.w3.org/2000/svg" width="444" height="42" viewBox="0 0 444 42" role="img" aria-label="backend and data" fill="none"><defs><filter id="glow" x="-30%" y="-60%" width="160%" height="220%"><feDropShadow dx="0" dy="0" stdDeviation="2.1" flood-color="#3FD0C9" flood-opacity="0.85"/></filter></defs><g filter="url(#glow)"><polygon points="4.0,5.0 99.2,5.0 106.2,12.0 106.2,37.0 11.0,37.0 4.0,30.0" fill="#0B0D10" stroke="#3FD0C9" stroke-width="1.3"/></g><rect x="17.0" y="17.5" width="7" height="7" rx="1" fill="#3FD0C9"/><text x="33.0" y="21.0" font-family="ui-monospace,'JetBrains Mono','DejaVu Sans Mono','Menlo',monospace" font-size="14" font-weight="600" fill="#E8FBF9" dominant-baseline="central" letter-spacing="0.3">Node.js</text><g filter="url(#glow)"><polygon points="118.2,5.0 239.2,5.0 246.2,12.0 246.2,37.0 125.2,37.0 118.2,30.0" fill="#0B0D10" stroke="#3FD0C9" stroke-width="1.3"/></g><rect x="131.2" y="17.5" width="7" height="7" rx="1" fill="#3FD0C9"/><text x="147.2" y="21.0" font-family="ui-monospace,'JetBrains Mono','DejaVu Sans Mono','Menlo',monospace" font-size="14" font-weight="600" fill="#E8FBF9" dominant-baseline="central" letter-spacing="0.3">PostgreSQL</text><g filter="url(#glow)"><polygon points="258.2,5.0 353.4,5.0 360.4,12.0 360.4,37.0 265.2,37.0 258.2,30.0" fill="#0B0D10" stroke="#3FD0C9" stroke-width="1.3"/></g><rect x="271.2" y="17.5" width="7" height="7" rx="1" fill="#3FD0C9"/><text x="287.2" y="21.0" font-family="ui-monospace,'JetBrains Mono','DejaVu Sans Mono','Menlo',monospace" font-size="14" font-weight="600" fill="#E8FBF9" dominant-baseline="central" letter-spacing="0.3">Drizzle</text><g filter="url(#glow)"><polygon points="372.4,5.0 433.2,5.0 440.2,12.0 440.2,37.0 379.4,37.0 372.4,30.0" fill="#0B0D10" stroke="#3FD0C9" stroke-width="1.3"/></g><rect x="385.4" y="17.5" width="7" height="7" rx="1" fill="#3FD0C9"/><text x="401.4" y="21.0" font-family="ui-monospace,'JetBrains Mono','DejaVu Sans Mono','Menlo',monospace" font-size="14" font-weight="600" fill="#E8FBF9" dominant-baseline="central" letter-spacing="0.3">Zod</text></svg>