<svg xmlns="http://www.w3.org/2000/svg" width="511" height="42" viewBox="0 0 511 42" role="img" aria-label="focus" fill="none"><defs><filter id="g" x="-30%" y="-60%" width="160%" height="220%"><feDropShadow dx="0" dy="0" stdDeviation="2.1" flood-color="#4AF626" flood-opacity="0.85"/></filter></defs><g filter="url(#g)"><polygon points="4.0,5.0 107.8,5.0 114.8,12.0 114.8,37.0 11.0,37.0 4.0,30.0" fill="#0B0D10" stroke="#4AF626" stroke-width="1.3"/></g><rect x="17.0" y="17.5" width="7" height="7" rx="1" fill="#4AF626"/><text x="33.0" y="21.0" font-family="ui-monospace,'JetBrains Mono','DejaVu Sans Mono','Menlo',monospace" font-size="14" font-weight="600" fill="#E8FBF9" dominant-baseline="central" letter-spacing="0.3">Red Team</text><g filter="url(#g)"><polygon points="126.8,5.0 325.2,5.0 332.2,12.0 332.2,37.0 133.8,37.0 126.8,30.0" fill="#0B0D10" stroke="#4AF626" stroke-width="1.3"/></g><rect x="139.8" y="17.5" width="7" height="7" rx="1" fill="#4AF626"/><text x="155.8" y="21.0" font-family="ui-monospace,'JetBrains Mono','DejaVu Sans Mono','Menlo',monospace" font-size="14" font-weight="600" fill="#E8FBF9" dominant-baseline="central" letter-spacing="0.3">Adversary Emulation</text><g filter="url(#g)"><polygon points="344.2,5.0 499.6,5.0 506.6,12.0 506.6,37.0 351.2,37.0 344.2,30.0" fill="#0B0D10" stroke="#4AF626" stroke-width="1.3"/></g><rect x="357.2" y="17.5" width="7" height="7" rx="1" fill="#4AF626"/><text x="373.2" y="21.0" font-family="ui-monospace,'JetBrains Mono','DejaVu Sans Mono','Menlo',monospace" font-size="14" font-weight="600" fill="#E8FBF9" dominant-baseline="central" letter-spacing="0.3">0-day Research</text></svg>