<svg xmlns="http://www.w3.org/2000/svg" width="538" height="42" viewBox="0 0 538 42" role="img" aria-label="focus" fill="none"><defs><filter id="g" x="-30%" y="-60%" width="160%" height="220%"><feDropShadow dx="0" dy="0" stdDeviation="2.1" flood-color="#4AF626" flood-opacity="0.85"/></filter></defs><g filter="url(#g)"><polygon points="4.0,5.0 116.8,5.0 123.8,12.0 123.8,37.0 11.0,37.0 4.0,30.0" fill="#0B0D10" stroke="#4AF626" stroke-width="1.3"/></g><g transform="translate(17.0,13.0) scale(0.6667)" fill="#4AF626"><path d="M6 4 L10 4 L18 12 L10 20 L6 20 L14 12 Z"/></g><text x="42.0" y="21.0" font-family="ui-monospace,'JetBrains Mono','DejaVu Sans Mono','Menlo',monospace" font-size="14" font-weight="600" fill="#E8FBF9" dominant-baseline="central" letter-spacing="0.3">Red Team</text><g filter="url(#g)"><polygon points="135.8,5.0 343.2,5.0 350.2,12.0 350.2,37.0 142.8,37.0 135.8,30.0" fill="#0B0D10" stroke="#4AF626" stroke-width="1.3"/></g><g transform="translate(148.8,13.0) scale(0.6667)" fill="#4AF626"><path d="M6 4 L10 4 L18 12 L10 20 L6 20 L14 12 Z"/></g><text x="173.8" y="21.0" font-family="ui-monospace,'JetBrains Mono','DejaVu Sans Mono','Menlo',monospace" font-size="14" font-weight="600" fill="#E8FBF9" dominant-baseline="central" letter-spacing="0.3">Adversary Emulation</text><g filter="url(#g)"><polygon points="362.2,5.0 526.6,5.0 533.6,12.0 533.6,37.0 369.2,37.0 362.2,30.0" fill="#0B0D10" stroke="#4AF626" stroke-width="1.3"/></g><g transform="translate(375.2,13.0) scale(0.6667)" fill="#4AF626"><path d="M6 4 L10 4 L18 12 L10 20 L6 20 L14 12 Z"/></g><text x="400.2" y="21.0" font-family="ui-monospace,'JetBrains Mono','DejaVu Sans Mono','Menlo',monospace" font-size="14" font-weight="600" fill="#E8FBF9" dominant-baseline="central" letter-spacing="0.3">0-day Research</text></svg>